<svg width="34.000000" height="21.000000" viewBox="0 0 34 21" fill="none" xmlns="http://www.w3.org/2000/svg" xmlns:xlink="http://www.w3.org/1999/xlink">
	<desc>
			Created with Pixso.
	</desc>
	<defs>
		<clipPath id="clip40_669">
			<rect id="payment-methods/light/american-express" width="33.314091" height="21.957016" transform="translate(-0.271484 -0.978516)" fill="white" fill-opacity="0"/>
		</clipPath>
	</defs>
	<g clip-path="url(#clip40_669)">
		<path id="Rectangle 1" d="M-0.28 1.76C-0.28 0.25 0.97 -0.98 2.5 -0.98L30.26 -0.98C31.79 -0.98 33.04 0.25 33.04 1.76L33.04 18.23C33.04 19.74 31.79 20.97 30.26 20.97L2.5 20.97C0.97 20.97 -0.28 19.74 -0.28 18.23L-0.28 1.76Z" fill="#D4DEF7" fill-opacity="1.000000" fill-rule="nonzero"/>
		<path id="Vector" d="M24.31 5.79L23.66 7.19L24.96 7.19L24.31 5.79ZM16.87 6.66C16.99 6.6 17.06 6.48 17.06 6.32C17.06 6.17 16.99 6.06 16.87 6.01C16.76 5.96 16.59 5.95 16.42 5.95L15.27 5.95L15.27 6.73L16.41 6.73C16.59 6.73 16.74 6.73 16.87 6.66ZM2.09 5.79L1.46 7.19L2.73 7.19L2.09 5.79ZM31.76 14.79L29.96 14.79L29.96 14.03L31.76 14.03C31.94 14.03 32.06 14.01 32.14 13.95C32.21 13.89 32.25 13.8 32.25 13.72C32.25 13.61 32.2 13.53 32.13 13.48C32.07 13.43 31.97 13.4 31.8 13.4C30.92 13.38 29.83 13.43 29.83 12.31C29.83 11.8 30.19 11.26 31.17 11.26L33.04 11.26L33.04 10.56L31.3 10.56C30.78 10.56 30.4 10.68 30.13 10.85L30.13 10.56L27.57 10.56C27.16 10.56 26.68 10.65 26.45 10.85L26.45 10.56L21.87 10.56L21.87 10.85C21.51 10.61 20.89 10.56 20.61 10.56L17.59 10.56L17.59 10.85C17.3 10.6 16.66 10.56 16.27 10.56L12.89 10.56L12.11 11.32L11.39 10.56L6.34 10.56L6.34 15.48L11.29 15.48L12.09 14.72L12.84 15.48L15.9 15.48L15.9 14.33L16.2 14.33C16.6 14.33 17.08 14.32 17.5 14.15L17.5 15.48L20.02 15.48L20.02 14.2L20.14 14.2C20.29 14.2 20.31 14.21 20.31 14.34L20.31 15.48L27.96 15.48C28.45 15.48 28.95 15.37 29.24 15.17L29.24 15.48L31.66 15.48C32.17 15.48 32.66 15.42 33.04 15.25L33.04 14.34C32.81 14.64 32.37 14.79 31.76 14.79L31.76 14.79ZM16.24 13.63L15.07 13.63L15.07 14.81L13.25 14.81L12.09 13.64L10.9 14.81L7.19 14.81L7.19 11.29L10.95 11.29L12.1 12.44L13.3 11.29L16.29 11.29C17.03 11.29 17.87 11.47 17.87 12.45C17.87 13.43 17.05 13.63 16.24 13.63ZM21.86 13.47C21.99 13.64 22.01 13.8 22.01 14.11L22.01 14.81L21.07 14.81L21.07 14.37C21.07 14.16 21.09 13.84 20.92 13.68C20.78 13.55 20.57 13.52 20.23 13.52L19.23 13.52L19.23 14.81L18.29 14.81L18.29 11.29L20.45 11.29C20.93 11.29 21.27 11.3 21.58 11.45C21.87 11.61 22.06 11.83 22.06 12.23C22.06 12.8 21.64 13.08 21.4 13.17C21.6 13.24 21.78 13.37 21.86 13.47ZM25.72 12.01L23.53 12.01L23.53 12.65L25.67 12.65L25.67 13.37L23.53 13.37L23.53 14.08L25.72 14.08L25.72 14.81L22.6 14.81L22.6 11.29L25.72 11.29L25.72 12.01ZM28.13 14.81L26.31 14.81L26.31 14.05L28.12 14.05C28.3 14.05 28.43 14.03 28.51 13.97C28.57 13.91 28.62 13.83 28.62 13.74C28.62 13.63 28.57 13.55 28.5 13.5C28.43 13.45 28.33 13.43 28.17 13.43C27.29 13.4 26.2 13.45 26.2 12.33C26.2 11.82 26.55 11.29 27.54 11.29L29.41 11.29L29.41 12.04L27.69 12.04C27.52 12.04 27.41 12.04 27.32 12.1C27.22 12.16 27.18 12.24 27.18 12.35C27.18 12.49 27.27 12.58 27.38 12.62C27.48 12.65 27.59 12.66 27.75 12.66L28.25 12.67C28.76 12.68 29.11 12.76 29.32 12.95C29.5 13.12 29.6 13.34 29.6 13.7C29.6 14.46 29.08 14.81 28.13 14.81ZM20.87 12.07C20.75 12.01 20.59 12.01 20.42 12.01L19.27 12.01L19.27 12.8L20.4 12.8C20.59 12.8 20.74 12.79 20.87 12.73C20.99 12.66 21.06 12.54 21.06 12.39C21.06 12.24 20.99 12.13 20.87 12.07ZM31.33 12.01C31.16 12.01 31.05 12.01 30.95 12.07C30.85 12.13 30.81 12.21 30.81 12.32C30.81 12.46 30.9 12.55 31.02 12.59C31.12 12.62 31.22 12.63 31.38 12.63L31.89 12.64C32.4 12.65 32.74 12.73 32.95 12.92C32.99 12.95 33.01 12.98 33.04 13.01L33.04 12.01L31.33 12.01L31.33 12.01ZM16.27 12.01L15.05 12.01L15.05 12.91L16.26 12.91C16.62 12.91 16.84 12.74 16.84 12.44C16.84 12.13 16.61 12.01 16.27 12.01ZM8.12 12.01L8.12 12.65L10.17 12.65L10.17 13.37L8.12 13.37L8.12 14.07L10.42 14.07L11.49 13.03L10.47 12.01L8.12 12.01ZM14.13 14.47L14.13 11.65L12.69 13.04L14.13 14.47ZM8.2 8.81L8.2 9.42L16.02 9.42L16.02 8.14L16.17 8.14C16.28 8.14 16.31 8.15 16.31 8.31L16.31 9.42L20.35 9.42L20.35 9.12C20.68 9.28 21.19 9.42 21.86 9.42L23.56 9.42L23.92 8.64L24.73 8.64L25.09 9.42L28.37 9.42L28.37 8.68L28.86 9.42L31.49 9.42L31.49 4.51L28.89 4.51L28.89 5.09L28.53 4.51L25.86 4.51L25.86 5.09L25.52 4.51L21.92 4.51C21.31 4.51 20.78 4.58 20.35 4.79L20.35 4.51L17.86 4.51L17.86 4.79C17.59 4.58 17.22 4.51 16.81 4.51L7.71 4.51L7.1 5.78L6.48 4.51L3.61 4.51L3.61 5.09L3.3 4.51L0.86 4.51L-0.28 6.84L-0.28 8.71L1.4 5.19L2.79 5.19L4.38 8.52L4.38 5.19L5.91 5.19L7.14 7.58L8.26 5.19L9.82 5.19L9.82 8.71L8.86 8.71L8.86 5.95L7.5 8.71L6.68 8.71L5.32 5.95L5.32 8.71L3.41 8.71L3.05 7.93L1.1 7.93L0.74 8.71L-0.28 8.71L-0.28 9.42L1.32 9.42L1.68 8.64L2.49 8.64L2.85 9.42L6 9.42L6 8.82L6.28 9.42L7.92 9.42L8.2 8.81L8.2 8.81ZM20.53 5.6C20.83 5.32 21.3 5.19 21.95 5.19L22.86 5.19L22.86 5.94L21.97 5.94C21.63 5.94 21.43 5.99 21.25 6.15C21.09 6.3 20.98 6.58 20.98 6.95C20.98 7.33 21.06 7.6 21.24 7.78C21.38 7.92 21.64 7.96 21.89 7.96L22.31 7.96L23.63 5.19L25.03 5.19L26.62 8.52L26.62 5.19L28.04 5.19L29.69 7.64L29.69 5.19L30.65 5.19L30.65 8.71L29.32 8.71L27.55 6.07L27.55 8.71L25.64 8.71L25.28 7.93L23.33 7.93L22.98 8.71L21.88 8.71C21.42 8.71 20.85 8.62 20.52 8.32C20.19 8.02 20.02 7.62 20.02 6.98C20.02 6.45 20.12 5.98 20.53 5.6ZM18.6 5.19L19.56 5.19L19.56 8.71L18.6 8.71L18.6 5.19ZM14.29 5.19L16.45 5.19C16.92 5.19 17.28 5.2 17.58 5.36C17.88 5.51 18.05 5.74 18.05 6.14C18.05 6.7 17.64 6.99 17.39 7.08C17.6 7.15 17.77 7.27 17.86 7.37C17.99 7.55 18.01 7.7 18.01 8.02L18.01 8.71L17.07 8.71L17.06 8.27C17.06 8.06 17.09 7.75 16.92 7.58C16.78 7.46 16.57 7.43 16.23 7.43L15.23 7.43L15.23 8.71L14.29 8.71L14.29 5.19ZM10.52 5.19L13.65 5.19L13.65 5.92L11.45 5.92L11.45 6.56L13.59 6.56L13.59 7.28L11.45 7.28L11.45 7.98L13.65 7.98L13.65 8.71L10.52 8.71L10.52 5.19Z" fill="#2557D6" fill-opacity="1.000000" fill-rule="nonzero"/>
	</g>
</svg>
