<svg width="34.000000" height="21.000000" viewBox="0 0 34 21" fill="none" xmlns="http://www.w3.org/2000/svg" xmlns:xlink="http://www.w3.org/1999/xlink">
	<desc>
			Created with Pixso.
	</desc>
	<defs>
		<clipPath id="clip40_666">
			<rect id="payment-methods/light/discover" width="34.071232" height="21.957016" transform="translate(-0.342773 -0.978516)" fill="white" fill-opacity="0"/>
		</clipPath>
	</defs>
	<g clip-path="url(#clip40_666)">
		<path id="Rectangle 1" d="M-0.35 1.76C-0.35 0.25 0.92 -0.98 2.49 -0.98L30.88 -0.98C32.45 -0.98 33.72 0.25 33.72 1.76L33.72 18.23C33.72 19.74 32.45 20.97 30.88 20.97L2.49 20.97C0.92 20.97 -0.35 19.74 -0.35 18.23L-0.35 1.76Z" fill="#FCE0CF" fill-opacity="1.000000" fill-rule="nonzero"/>
		<path id="Vector" d="M19.94 9.98C19.94 9.39 19.71 8.8 19.25 8.35C18.79 7.91 18.18 7.69 17.57 7.69C17.56 7.69 17.56 7.69 17.56 7.69C16.23 7.69 15.18 8.71 15.18 9.99C15.18 11.26 16.24 12.29 17.56 12.29C18.89 12.29 19.94 11.28 19.94 9.99C19.94 9.99 19.94 9.98 19.94 9.98Z" fill="#F26E21" fill-opacity="1.000000" fill-rule="nonzero"/>
		<path id="Vector" d="M14.73 10.97C14.38 11.31 14.05 11.45 13.7 11.45C12.83 11.45 12.2 10.83 12.2 9.95C12.2 9.51 12.37 9.14 12.65 8.83C12.91 8.6 13.24 8.44 13.62 8.44C14.03 8.44 14.35 8.58 14.72 8.93L14.72 7.91C14.35 7.74 14.03 7.65 13.62 7.65C13.04 7.69 12.49 7.91 12.07 8.27C11.95 8.38 11.83 8.49 11.73 8.63C11.42 9.01 11.24 9.48 11.24 9.99C11.24 11.28 12.29 12.25 13.62 12.25C13.63 12.25 13.63 12.25 13.64 12.25C13.65 12.25 13.66 12.25 13.67 12.25C14.03 12.25 14.35 12.16 14.76 11.99L14.73 10.97C14.72 10.98 14.75 11 14.73 11.01L14.73 10.97Z" fill="#2B2B2B" fill-opacity="1.000000" fill-rule="nonzero"/>
		<path id="Vector" d="M22.95 8.28L21.91 10.75L20.72 7.82L19.76 7.82L21.63 12.3L22.14 12.3L24.11 7.82L23.14 7.82L22.95 8.28Z" fill="#2B2B2B" fill-opacity="1.000000" fill-rule="nonzero"/>
		<path id="Vector" d="M24.47 9.77L24.47 12.16L26.95 12.16L26.99 12.16L26.99 11.45L26.21 11.45L25.39 11.45L25.39 10.66L25.39 10.26L26.95 10.26L26.95 9.51L25.39 9.51L25.39 8.58L26.99 8.58L26.99 7.82L24.47 7.82L24.47 9.77Z" fill="#2B2B2B" fill-opacity="1.000000" fill-rule="nonzero"/>
		<path id="Vector" d="M3.77 7.83L2.49 7.83L2.49 12.16L3.77 12.16C4.46 12.16 4.96 11.99 5.38 11.68C5.88 11.28 6.2 10.66 6.2 10C6.2 8.71 5.24 7.83 3.77 7.83ZM4.83 11.1C4.55 11.32 4.19 11.46 3.64 11.46L3.36 11.46L3.36 8.58L3.59 8.58C4.14 8.58 4.51 8.67 4.78 8.93C5.1 9.2 5.28 9.6 5.28 9.99C5.33 10.39 5.15 10.84 4.83 11.1Z" fill="#2B2B2B" fill-opacity="1.000000" fill-rule="nonzero"/>
		<path id="Vector" d="M6.61 7.82L7.48 7.82L7.48 12.16L6.61 12.16L6.61 7.82Z" fill="#2B2B2B" fill-opacity="1.000000" fill-rule="evenodd"/>
		<path id="Vector" d="M9.68 9.51C9.13 9.33 8.99 9.2 8.99 8.98C8.99 8.71 9.27 8.49 9.64 8.49C9.91 8.49 10.14 8.58 10.37 8.84L10.83 8.27C10.46 7.96 10 7.78 9.5 7.78C8.72 7.78 8.08 8.31 8.08 9.02C8.08 9.64 8.35 9.91 9.18 10.22C9.54 10.35 9.68 10.39 9.77 10.48C9.96 10.57 10.05 10.75 10.05 10.92C10.05 11.28 9.77 11.54 9.36 11.54C8.95 11.54 8.58 11.32 8.4 10.97L7.85 11.5C8.26 12.07 8.77 12.34 9.41 12.34C10.32 12.34 10.96 11.77 10.96 10.92C10.96 10.17 10.69 9.86 9.68 9.51Z" fill="#2B2B2B" fill-opacity="1.000000" fill-rule="nonzero"/>
		<path id="Vector" d="M29.47 10.35C30.15 10.22 30.52 9.77 30.52 9.11C30.52 8.31 29.92 7.82 28.92 7.82L27.59 7.82L27.59 12.16L28.46 12.16L28.46 10.44L28.6 10.44L29.83 12.16L30.88 12.16L29.47 10.35ZM28.73 9.82L28.46 9.82L28.46 8.49L28.73 8.49C29.28 8.49 29.6 8.71 29.6 9.15C29.6 9.6 29.28 9.82 28.73 9.82Z" fill="#2B2B2B" fill-opacity="1.000000" fill-rule="nonzero"/>
	</g>
</svg>
