<svg width="22.000000" height="22.000000" viewBox="0 0 22 22" fill="none" xmlns="http://www.w3.org/2000/svg" xmlns:xlink="http://www.w3.org/1999/xlink">
	<desc>
			Created with Pixso.
	</desc>
	<defs>
		<clipPath id="clip40_614">
			<rect id="ant-design:facebook-filled" width="22.000000" height="22.000000" fill="white" fill-opacity="0"/>
		</clipPath>
	</defs>
	<g opacity="0.500000">
		<rect id="ant-design:facebook-filled" width="22.000000" height="22.000000" fill="#FFFFFF" fill-opacity="0"/>
		<g clip-path="url(#clip40_614)">
			<path id="Vector" d="M18.81 2.5L3.18 2.5C2.8 2.5 2.5 2.8 2.5 3.18L2.5 18.81C2.5 19.19 2.8 19.49 3.18 19.49L18.81 19.49C19.19 19.49 19.49 19.19 19.49 18.81L19.49 3.18C19.49 2.8 19.19 2.5 18.81 2.5ZM16.85 7.46L15.49 7.46C14.43 7.46 14.22 7.96 14.22 8.71L14.22 10.35L16.76 10.35L16.43 12.91L14.22 12.91L14.22 19.49L11.57 19.49L11.57 12.91L9.36 12.91L9.36 10.35L11.57 10.35L11.57 8.45C11.57 6.26 12.91 5.07 14.87 5.07C15.81 5.07 16.61 5.14 16.85 5.17L16.85 7.46L16.85 7.46Z" fill="#FFFFFF" fill-opacity="1.000000" fill-rule="nonzero"/>
		</g>
	</g>
</svg>
