<svg width="33.000000" height="21.000000" viewBox="0 0 33 21" fill="none" xmlns="http://www.w3.org/2000/svg" xmlns:xlink="http://www.w3.org/1999/xlink">
	<desc>
			Created with Pixso.
	</desc>
	<defs>
		<clipPath id="clip40_654">
			<rect id="payment-methods/light/maestro" width="33.314091" height="21.957016" transform="translate(-0.657227 -0.978516)" fill="white" fill-opacity="0"/>
		</clipPath>
	</defs>
	<g clip-path="url(#clip40_654)">
		<path id="Rectangle 1" d="M-0.66 1.76C-0.66 0.25 0.58 -0.98 2.11 -0.98L29.88 -0.98C31.41 -0.98 32.65 0.25 32.65 1.76L32.65 18.23C32.65 19.74 31.41 20.97 29.88 20.97L2.11 20.97C0.58 20.97 -0.66 19.74 -0.66 18.23L-0.66 1.76Z" fill="#CCEFFF" fill-opacity="1.000000" fill-rule="nonzero"/>
		<path id="Vector" d="M19.64 16.47L12.35 16.47L12.35 3.52L19.64 3.52L19.64 16.47Z" fill="#6C6BBD" fill-opacity="1.000000" fill-rule="nonzero"/>
		<path id="Vector" d="M12.82 10C12.82 7.37 14.06 5.03 16 3.52C14.58 2.42 12.8 1.76 10.85 1.76C6.25 1.76 2.53 5.45 2.53 10C2.53 14.54 6.25 18.23 10.85 18.23C12.8 18.23 14.58 17.57 16 16.47C14.06 14.96 12.82 12.62 12.82 10Z" fill="#EB001B" fill-opacity="1.000000" fill-rule="nonzero"/>
		<path id="Vector" d="M29.47 10C29.47 14.54 25.74 18.23 21.14 18.23C19.2 18.23 17.41 17.57 15.99 16.47C17.93 14.96 19.17 12.62 19.17 10C19.17 7.37 17.93 5.03 15.99 3.52C17.41 2.42 19.2 1.76 21.14 1.76C25.74 1.76 29.47 5.45 29.47 10Z" fill="#0099DF" fill-opacity="1.000000" fill-rule="nonzero"/>
	</g>
</svg>
