<svg width="22.000000" height="22.000000" viewBox="0 0 22 22" fill="none" xmlns="http://www.w3.org/2000/svg" xmlns:xlink="http://www.w3.org/1999/xlink">
	<desc>
			Created with Pixso.
	</desc>
	<defs>
		<clipPath id="clip40_616">
			<rect id="ant-design:instagram-filled" width="22.000000" height="22.000000" fill="white" fill-opacity="0"/>
		</clipPath>
	</defs>
	<g opacity="0.500000">
		<rect id="ant-design:instagram-filled" width="22.000000" height="22.000000" fill="#FFFFFF" fill-opacity="0"/>
		<g clip-path="url(#clip40_616)">
			<path id="Vector" d="M11 8.13C9.42 8.13 8.13 9.42 8.13 11C8.13 12.57 9.42 13.86 11 13.86C12.57 13.86 13.86 12.57 13.86 11C13.86 9.42 12.57 8.13 11 8.13ZM19.58 11C19.58 9.81 19.6 8.63 19.53 7.45C19.46 6.08 19.15 4.85 18.14 3.85C17.14 2.84 15.92 2.53 14.54 2.46C13.36 2.4 12.18 2.41 11 2.41C9.81 2.41 8.64 2.4 7.45 2.46C6.08 2.53 4.86 2.84 3.85 3.85C2.84 4.86 2.53 6.08 2.47 7.45C2.4 8.64 2.41 9.81 2.41 11C2.41 12.18 2.4 13.36 2.47 14.54C2.53 15.91 2.85 17.14 3.85 18.14C4.86 19.15 6.08 19.46 7.45 19.53C8.64 19.59 9.81 19.58 11 19.58C12.18 19.58 13.36 19.59 14.54 19.53C15.92 19.46 17.14 19.15 18.14 18.14C19.15 17.13 19.46 15.91 19.53 14.54C19.6 13.36 19.58 12.18 19.58 11ZM11 15.4C8.56 15.4 6.59 13.43 6.59 11C6.59 8.56 8.56 6.59 11 6.59C13.43 6.59 15.4 8.56 15.4 11C15.4 13.43 13.43 15.4 11 15.4ZM15.58 7.44C15.01 7.44 14.55 6.98 14.55 6.41C14.55 5.84 15.01 5.38 15.58 5.38C16.15 5.38 16.61 5.84 16.61 6.41C16.61 6.54 16.58 6.68 16.53 6.8C16.48 6.93 16.41 7.04 16.31 7.14C16.21 7.23 16.1 7.31 15.98 7.36C15.85 7.41 15.72 7.44 15.58 7.44Z" fill="#FFFFFF" fill-opacity="1.000000" fill-rule="nonzero"/>
		</g>
	</g>
</svg>
