<svg width="35.000000" height="21.000000" viewBox="0 0 35 21" fill="none" xmlns="http://www.w3.org/2000/svg" xmlns:xlink="http://www.w3.org/1999/xlink">
	<desc>
			Created with Pixso.
	</desc>
	<defs>
		<clipPath id="clip40_648">
			<rect id="payment-methods/light/paypal" width="34.071232" height="21.957016" transform="translate(-0.042480 -0.978516)" fill="white" fill-opacity="0"/>
		</clipPath>
	</defs>
	<g clip-path="url(#clip40_648)">
		<path id="Rectangle 1" d="M-0.05 1.76C-0.05 0.25 1.22 -0.98 2.79 -0.98L31.18 -0.98C32.75 -0.98 34.02 0.25 34.02 1.76L34.02 18.23C34.02 19.74 32.75 20.97 31.18 20.97L2.79 20.97C1.22 20.97 -0.05 19.74 -0.05 18.23L-0.05 1.76Z" fill="#CCDEFF" fill-opacity="1.000000" fill-rule="nonzero"/>
		<path id="Vector" d="M7.6 6.92C7.24 6.68 6.78 6.56 6.2 6.56L3.99 6.56C3.81 6.56 3.71 6.65 3.7 6.82L2.79 12.29C2.79 12.34 2.8 12.39 2.84 12.43C2.87 12.48 2.92 12.5 2.97 12.5L4.03 12.5C4.21 12.5 4.31 12.42 4.33 12.25L4.58 10.77C4.59 10.7 4.62 10.64 4.68 10.6C4.74 10.55 4.8 10.52 4.89 10.51C4.97 10.5 5.05 10.49 5.12 10.49C5.2 10.49 5.29 10.5 5.39 10.5C5.49 10.51 5.55 10.52 5.58 10.52C6.38 10.52 7 10.3 7.45 9.87C7.91 9.43 8.13 8.83 8.13 8.07C8.13 7.54 7.95 7.16 7.6 6.92L7.6 6.92ZM6.45 8.56C6.41 8.87 6.29 9.08 6.09 9.18C5.9 9.28 5.62 9.32 5.26 9.32L4.8 9.34L5.04 7.9C5.06 7.81 5.12 7.76 5.22 7.76L5.48 7.76C5.85 7.76 6.12 7.81 6.29 7.91C6.45 8.01 6.51 8.23 6.45 8.56Z" fill="#003087" fill-opacity="1.000000" fill-rule="nonzero"/>
		<path id="Vector" d="M31 6.56L29.98 6.56C29.88 6.56 29.82 6.61 29.8 6.71L28.9 12.29L28.88 12.31C28.88 12.36 28.9 12.4 28.94 12.44C28.98 12.48 29.02 12.5 29.08 12.5L29.99 12.5C30.17 12.5 30.26 12.42 30.28 12.25L31.18 6.77L31.18 6.75C31.18 6.63 31.12 6.56 31 6.56L31 6.56Z" fill="#009CDE" fill-opacity="1.000000" fill-rule="nonzero"/>
		<path id="Vector" d="M18.61 8.72C18.61 8.68 18.59 8.64 18.56 8.6C18.52 8.56 18.48 8.54 18.43 8.54L17.36 8.54C17.26 8.54 17.18 8.58 17.11 8.67L15.64 10.76L15.04 8.75C14.99 8.61 14.89 8.54 14.73 8.54L13.69 8.54C13.64 8.54 13.6 8.56 13.57 8.6C13.53 8.64 13.51 8.68 13.51 8.72C13.51 8.74 13.6 9 13.78 9.51C13.96 10.02 14.15 10.57 14.36 11.16C14.57 11.75 14.68 12.06 14.69 12.1C13.93 13.1 13.55 13.64 13.55 13.71C13.55 13.82 13.61 13.88 13.73 13.88L14.8 13.88C14.9 13.88 14.98 13.84 15.05 13.75L18.58 8.82C18.6 8.8 18.61 8.77 18.61 8.72L18.61 8.72Z" fill="#003087" fill-opacity="1.000000" fill-rule="nonzero"/>
		<path id="Vector" d="M28.55 8.53L27.5 8.53C27.37 8.53 27.29 8.68 27.26 8.98C27.02 8.62 26.58 8.44 25.95 8.44C25.28 8.44 24.71 8.68 24.25 9.16C23.78 9.65 23.55 10.21 23.55 10.86C23.55 11.39 23.71 11.81 24.03 12.12C24.34 12.44 24.77 12.59 25.31 12.59C25.58 12.59 25.85 12.54 26.13 12.43C26.4 12.33 26.62 12.18 26.78 12C26.78 12.01 26.77 12.05 26.75 12.12C26.73 12.2 26.72 12.25 26.72 12.29C26.72 12.43 26.78 12.5 26.9 12.5L27.86 12.5C28.03 12.5 28.14 12.41 28.16 12.25L28.73 8.75C28.74 8.69 28.73 8.64 28.69 8.6C28.65 8.56 28.61 8.53 28.55 8.53ZM26.74 11.17C26.51 11.4 26.22 11.51 25.89 11.51C25.62 11.51 25.4 11.44 25.24 11.29C25.07 11.15 24.99 10.95 24.99 10.7C24.99 10.37 25.1 10.09 25.34 9.87C25.57 9.64 25.85 9.53 26.19 9.53C26.45 9.53 26.67 9.6 26.84 9.75C27.01 9.89 27.1 10.1 27.1 10.36C27.1 10.68 26.98 10.95 26.74 11.17Z" fill="#009CDE" fill-opacity="1.000000" fill-rule="nonzero"/>
		<path id="Vector" d="M12.8 8.53L11.75 8.53C11.62 8.53 11.54 8.68 11.51 8.98C11.26 8.62 10.83 8.44 10.2 8.44C9.53 8.44 8.97 8.68 8.5 9.16C8.03 9.65 7.8 10.21 7.8 10.86C7.8 11.39 7.96 11.81 8.28 12.12C8.6 12.44 9.02 12.59 9.56 12.59C9.82 12.59 10.09 12.54 10.36 12.43C10.64 12.33 10.86 12.18 11.03 12C10.99 12.11 10.97 12.21 10.97 12.29C10.97 12.43 11.03 12.5 11.15 12.5L12.11 12.5C12.29 12.5 12.39 12.41 12.42 12.25L12.98 8.75C12.99 8.69 12.98 8.64 12.94 8.6C12.91 8.56 12.86 8.53 12.8 8.53ZM10.99 11.18C10.76 11.4 10.47 11.51 10.13 11.51C9.86 11.51 9.64 11.44 9.48 11.29C9.32 11.15 9.24 10.95 9.24 10.7C9.24 10.37 9.36 10.09 9.59 9.87C9.82 9.64 10.1 9.52 10.45 9.52C10.71 9.52 10.92 9.6 11.09 9.75C11.26 9.89 11.35 10.1 11.35 10.36C11.35 10.69 11.23 10.96 10.99 11.18Z" fill="#003087" fill-opacity="1.000000" fill-rule="nonzero"/>
		<path id="Vector" d="M23.35 6.92C22.99 6.68 22.53 6.56 21.95 6.56L19.75 6.56C19.56 6.56 19.46 6.65 19.44 6.82L18.54 12.29C18.53 12.34 18.55 12.39 18.58 12.43C18.62 12.48 18.67 12.5 18.72 12.5L19.86 12.5C19.97 12.5 20.04 12.44 20.08 12.33L20.33 10.77C20.34 10.7 20.37 10.64 20.43 10.6C20.48 10.55 20.55 10.52 20.64 10.51C20.72 10.5 20.8 10.49 20.87 10.49C20.95 10.49 21.03 10.5 21.13 10.5C21.24 10.51 21.3 10.52 21.33 10.52C22.12 10.52 22.75 10.3 23.2 9.87C23.65 9.43 23.88 8.83 23.88 8.07C23.88 7.54 23.7 7.16 23.35 6.92L23.35 6.92ZM21.92 9.12C21.72 9.26 21.42 9.32 21.01 9.32L20.57 9.34L20.8 7.9C20.82 7.81 20.88 7.76 20.98 7.76L21.23 7.76C21.43 7.76 21.6 7.77 21.72 7.78C21.84 7.8 21.95 7.86 22.06 7.95C22.17 8.04 22.23 8.18 22.23 8.36C22.23 8.74 22.13 8.99 21.92 9.12Z" fill="#009CDE" fill-opacity="1.000000" fill-rule="nonzero"/>
	</g>
</svg>
