<svg width="33.000000" height="21.000000" viewBox="0 0 33 21" fill="none" xmlns="http://www.w3.org/2000/svg" xmlns:xlink="http://www.w3.org/1999/xlink">
	<desc>
			Created with Pixso.
	</desc>
	<defs>
		<clipPath id="clip40_639">
			<rect id="payment-methods/light/visa" width="33.314091" height="21.957016" transform="translate(-0.971191 -0.978516)" fill="white" fill-opacity="0"/>
		</clipPath>
	</defs>
	<g clip-path="url(#clip40_639)">
		<path id="Rectangle 2" d="M-0.98 1.76C-0.98 0.25 0.27 -0.98 1.8 -0.98L29.56 -0.98C31.1 -0.98 32.34 0.25 32.34 1.76L32.34 18.23C32.34 19.74 31.1 20.97 29.56 20.97L1.8 20.97C0.27 20.97 -0.98 19.74 -0.98 18.23L-0.98 1.76Z" fill="#D8E3F3" fill-opacity="1.000000" fill-rule="nonzero"/>
		<path id="Vector" d="M27.7 5.9L25.95 5.9C25.42 5.9 25.02 6.06 24.77 6.58L21.44 14.09L23.8 14.09C23.8 14.09 24.2 13.08 24.29 12.84C24.53 12.84 26.84 12.84 27.17 12.84C27.25 13.12 27.45 14.04 27.45 14.04L29.56 14.04L27.7 5.9ZM24.94 11.16C25.14 10.67 25.83 8.87 25.83 8.87C25.83 8.91 26.03 8.39 26.11 8.11L26.27 8.83C26.27 8.83 26.72 10.79 26.8 11.2L24.94 11.2L24.94 11.16Z" fill="#3362AB" fill-opacity="1.000000" fill-rule="nonzero"/>
		<path id="Vector" d="M21.61 11.4C21.61 13.08 20.06 14.21 17.67 14.21C16.66 14.21 15.68 14.01 15.15 13.77L15.48 11.92L15.76 12.04C16.49 12.36 16.98 12.48 17.87 12.48C18.52 12.48 19.21 12.24 19.21 11.68C19.21 11.32 18.93 11.08 18.04 10.68C17.18 10.27 16.05 9.63 16.05 8.47C16.05 6.86 17.63 5.78 19.86 5.78C20.71 5.78 21.44 5.94 21.89 6.14L21.57 7.91L21.4 7.75C21 7.59 20.47 7.43 19.7 7.43C18.85 7.47 18.44 7.83 18.44 8.15C18.44 8.51 18.93 8.79 19.7 9.15C21 9.75 21.61 10.44 21.61 11.4Z" fill="#3362AB" fill-opacity="1.000000" fill-rule="nonzero"/>
		<path id="Vector" d="M1.8 5.98L1.84 5.82L5.33 5.82C5.82 5.82 6.18 5.98 6.31 6.5L7.08 10.11C6.31 8.19 4.52 6.62 1.8 5.98Z" fill="#F9B50B" fill-opacity="1.000000" fill-rule="nonzero"/>
		<path id="Vector" d="M11.99 5.9L8.46 14.05L6.06 14.05L4.03 7.22C5.49 8.15 6.71 9.59 7.16 10.6L7.4 11.44L9.59 5.86L11.99 5.86L11.99 5.9Z" fill="#3362AB" fill-opacity="1.000000" fill-rule="nonzero"/>
		<path id="Vector" d="M12.92 5.86L15.15 5.86L13.73 14.05L11.5 14.05L12.92 5.86Z" fill="#3362AB" fill-opacity="1.000000" fill-rule="nonzero"/>
	</g>
</svg>
