<svg width="20.000000" height="20.000000" viewBox="0 0 20 20" fill="none" xmlns="http://www.w3.org/2000/svg" xmlns:xlink="http://www.w3.org/1999/xlink">
	<desc>
			Created with Pixso.
	</desc>
	<defs>
		<clipPath id="clip9_5857">
			<rect id="ant-design:instagram-filled" width="20.000000" height="20.000000" fill="white" fill-opacity="0"/>
		</clipPath>
	</defs>
	<rect id="ant-design:instagram-filled" width="20.000000" height="20.000000" fill="#FFFFFF" fill-opacity="0"/>
	<g clip-path="url(#clip9_5857)">
		<path id="Vector" d="M10 7.39C8.56 7.39 7.39 8.56 7.39 10C7.39 11.43 8.56 12.6 10 12.6C11.43 12.6 12.6 11.43 12.6 10C12.6 8.56 11.43 7.39 10 7.39ZM17.8 10C17.8 8.92 17.81 7.85 17.75 6.77C17.69 5.52 17.41 4.41 16.49 3.5C15.58 2.58 14.47 2.3 13.22 2.24C12.14 2.18 11.07 2.19 10 2.19C8.92 2.19 7.85 2.18 6.77 2.24C5.52 2.3 4.41 2.58 3.5 3.5C2.58 4.41 2.3 5.52 2.24 6.77C2.18 7.85 2.19 8.92 2.19 10C2.19 11.07 2.18 12.14 2.24 13.22C2.3 14.47 2.59 15.58 3.5 16.49C4.42 17.41 5.52 17.69 6.77 17.75C7.85 17.81 8.92 17.8 10 17.8C11.08 17.8 12.14 17.81 13.22 17.75C14.47 17.69 15.58 17.41 16.49 16.49C17.41 15.58 17.69 14.47 17.75 13.22C17.82 12.14 17.8 11.07 17.8 10ZM10 14C7.78 14 5.99 12.21 5.99 10C5.99 7.78 7.78 5.99 10 5.99C12.21 5.99 14 7.78 14 10C14 12.21 12.21 14 10 14ZM14.16 6.76C13.65 6.76 13.23 6.34 13.23 5.83C13.23 5.31 13.65 4.89 14.16 4.89C14.68 4.89 15.1 5.31 15.1 5.83C15.1 5.95 15.08 6.07 15.03 6.18C14.98 6.3 14.91 6.4 14.83 6.49C14.74 6.57 14.64 6.64 14.52 6.69C14.41 6.74 14.29 6.76 14.16 6.76Z" fill="#FFFFFF" fill-opacity="1.000000" fill-rule="nonzero"/>
	</g>
</svg>
