<svg width="18.000000" height="16.000000" viewBox="0 0 18 16" fill="none" xmlns="http://www.w3.org/2000/svg" xmlns:xlink="http://www.w3.org/1999/xlink">
	<desc>
			Created with Pixso.
	</desc>
	<defs/>
	<path id="Vector" d="M10.58 15.83C11.13 15.83 11.66 15.61 12.05 15.22C12.44 14.83 12.66 14.3 12.66 13.75C12.66 13.19 12.44 12.66 12.05 12.27C11.66 11.88 11.13 11.66 10.58 11.66C10.03 11.66 9.5 11.88 9.11 12.27C8.71 12.66 8.5 13.19 8.5 13.75C8.5 14.3 8.71 14.83 9.11 15.22C9.5 15.61 10.03 15.83 10.58 15.83ZM3.29 15.83C3.84 15.83 4.37 15.61 4.76 15.22C5.15 14.83 5.37 14.3 5.37 13.75C5.37 13.19 5.15 12.66 4.76 12.27C4.37 11.88 3.84 11.66 3.29 11.66C2.73 11.66 2.2 11.88 1.81 12.27C1.42 12.66 1.2 13.19 1.2 13.75C1.2 14.3 1.42 14.83 1.81 15.22C2.2 15.61 2.73 15.83 3.29 15.83ZM16.87 1.16C17.13 1.16 17.37 1.05 17.56 0.86C17.74 0.67 17.84 0.42 17.84 0.16C17.84 -0.1 17.74 -0.35 17.56 -0.53C17.37 -0.72 17.13 -0.83 16.87 -0.84L15.67 -0.84C14.73 -0.84 13.92 -0.19 13.71 0.73L12.41 6.61C12.2 7.52 11.39 8.18 10.45 8.18L2.63 8.18L1.12 2.17L10.86 2.17C11.12 2.15 11.36 2.04 11.54 1.86C11.72 1.67 11.82 1.42 11.82 1.16C11.82 0.91 11.72 0.66 11.54 0.47C11.36 0.29 11.12 0.18 10.86 0.16L1.12 0.16C0.82 0.16 0.52 0.23 0.25 0.37C-0.03 0.5 -0.27 0.69 -0.46 0.93C-0.64 1.17 -0.77 1.45 -0.84 1.75C-0.9 2.05 -0.89 2.36 -0.82 2.65L0.68 8.66C0.79 9.1 1.04 9.48 1.39 9.76C1.75 10.03 2.18 10.18 2.63 10.18L10.45 10.18C11.36 10.18 12.25 9.87 12.96 9.3C13.67 8.73 14.16 7.93 14.36 7.04L15.67 1.16L16.87 1.16Z" fill="#000000" fill-opacity="1.000000" fill-rule="nonzero"/>
</svg>
