<svg width="16.000000" height="15.000000" viewBox="0 0 16 15" fill="none" xmlns="http://www.w3.org/2000/svg" xmlns:xlink="http://www.w3.org/1999/xlink">
	<desc>
			Created with Pixso.
	</desc>
	<defs/>
	<path id="Vector" d="M11.5 9.42C12.48 8.15 12.95 6.55 12.8 4.94C12.65 3.34 11.89 1.85 10.68 0.79C9.47 -0.28 7.91 -0.84 6.3 -0.79C4.69 -0.74 3.16 -0.08 2.02 1.06C0.88 2.2 0.21 3.73 0.16 5.34C0.11 6.95 0.68 8.52 1.74 9.73C2.81 10.94 4.3 11.69 5.9 11.84C7.5 11.99 9.11 11.53 10.38 10.54L10.41 10.57L13.77 13.93C13.85 14.01 13.93 14.06 14.03 14.1C14.12 14.14 14.23 14.16 14.33 14.16C14.44 14.16 14.54 14.14 14.63 14.1C14.73 14.06 14.82 14.01 14.89 13.93C14.97 13.86 15.02 13.77 15.06 13.68C15.1 13.58 15.12 13.48 15.12 13.37C15.12 13.27 15.1 13.17 15.06 13.07C15.02 12.97 14.97 12.89 14.89 12.81L11.53 9.45C11.52 9.44 11.51 9.43 11.5 9.42ZM9.85 2.18C10.3 2.62 10.66 3.14 10.9 3.72C11.14 4.3 11.27 4.92 11.27 5.54C11.28 6.17 11.15 6.79 10.91 7.37C10.68 7.95 10.33 8.48 9.88 8.92C9.44 9.37 8.91 9.72 8.33 9.96C7.75 10.19 7.13 10.32 6.5 10.31C5.88 10.31 5.26 10.18 4.68 9.94C4.1 9.7 3.58 9.34 3.14 8.89C2.26 8 1.77 6.8 1.77 5.54C1.78 4.29 2.28 3.09 3.16 2.2C4.05 1.32 5.25 0.82 6.5 0.81C7.76 0.81 8.96 1.3 9.85 2.18Z" fill="#000000" fill-opacity="1.000000" fill-rule="evenodd"/>
	<path id="Vector" d="M13 6.15C13.04 5.75 13.04 5.34 13 4.93C12.96 4.51 12.88 4.11 12.77 3.72C12.66 3.33 12.5 2.94 12.32 2.57C12.13 2.2 11.91 1.86 11.66 1.53C11.41 1.21 11.13 0.91 10.82 0.64C10.5 0.36 10.17 0.12 9.82 -0.09C9.47 -0.29 9.1 -0.47 8.71 -0.61C8.32 -0.75 7.92 -0.85 7.52 -0.92C7.11 -0.98 6.71 -1 6.29 -0.99C5.87 -0.98 5.47 -0.93 5.07 -0.84C4.67 -0.75 4.28 -0.62 3.9 -0.46C3.52 -0.29 3.16 -0.1 2.82 0.13C2.48 0.36 2.17 0.62 1.87 0.92C1.58 1.21 1.32 1.52 1.09 1.86C0.86 2.2 0.66 2.56 0.5 2.94C0.33 3.32 0.2 3.71 0.12 4.11C0.03 4.51 -0.03 4.92 -0.04 5.33C-0.05 5.75 -0.03 6.16 0.04 6.56C0.1 6.96 0.2 7.36 0.34 7.75C0.49 8.14 0.66 8.51 0.87 8.87C1.08 9.22 1.32 9.55 1.59 9.86C1.87 10.17 2.17 10.45 2.49 10.7C2.81 10.95 3.16 11.17 3.53 11.36C3.9 11.55 4.28 11.7 4.67 11.81C5.06 11.93 5.47 12 5.88 12.04C6.3 12.08 6.71 12.08 7.11 12.04C7.52 12 7.92 11.93 8.32 11.81C8.72 11.69 9.1 11.54 9.46 11.36C9.78 11.2 10.08 11.01 10.36 10.8L13.63 14.07C13.68 14.12 13.73 14.16 13.78 14.2C13.83 14.23 13.89 14.26 13.95 14.29C14.01 14.31 14.08 14.33 14.14 14.35C14.2 14.36 14.27 14.36 14.33 14.36C14.4 14.36 14.46 14.36 14.53 14.35C14.59 14.33 14.65 14.31 14.71 14.29C14.77 14.26 14.83 14.23 14.88 14.2C14.94 14.16 14.99 14.12 15.03 14.07C15.08 14.03 15.12 13.98 15.16 13.92C15.19 13.87 15.22 13.81 15.25 13.75C15.27 13.69 15.29 13.63 15.31 13.57C15.32 13.5 15.32 13.44 15.32 13.37C15.32 13.31 15.32 13.24 15.31 13.18C15.29 13.12 15.27 13.05 15.25 12.99C15.22 12.93 15.19 12.88 15.16 12.82C15.12 12.77 15.08 12.72 15.03 12.67L11.76 9.4C11.97 9.12 12.16 8.82 12.32 8.51C12.5 8.14 12.65 7.76 12.77 7.36C12.88 6.96 12.96 6.56 13 6.15ZM11.5 9.42C12.48 8.15 12.95 6.55 12.8 4.94C12.65 3.34 11.89 1.85 10.68 0.79C9.47 -0.28 7.91 -0.84 6.3 -0.79C4.69 -0.74 3.16 -0.08 2.02 1.06C0.88 2.2 0.21 3.73 0.16 5.34C0.11 6.95 0.68 8.52 1.74 9.73C2.81 10.94 4.3 11.69 5.9 11.84C7.5 11.99 9.11 11.53 10.38 10.54L10.41 10.57L13.77 13.93C13.85 14.01 13.93 14.06 14.03 14.1C14.12 14.14 14.23 14.16 14.33 14.16C14.44 14.16 14.54 14.14 14.63 14.1C14.73 14.06 14.82 14.01 14.89 13.93C14.97 13.86 15.02 13.77 15.06 13.68C15.1 13.58 15.12 13.48 15.12 13.37C15.12 13.27 15.1 13.17 15.06 13.07C15.02 12.97 14.97 12.89 14.89 12.81L11.53 9.45C11.52 9.44 11.51 9.43 11.5 9.42ZM9.85 2.18C10.3 2.62 10.66 3.14 10.9 3.72C11.14 4.3 11.27 4.92 11.27 5.54C11.28 6.17 11.15 6.79 10.91 7.37C10.68 7.95 10.33 8.48 9.88 8.92C9.44 9.37 8.91 9.72 8.33 9.96C7.75 10.19 7.13 10.32 6.5 10.31C5.88 10.31 5.26 10.18 4.68 9.94C4.1 9.7 3.58 9.34 3.14 8.89C2.26 8 1.77 6.8 1.77 5.54C1.78 4.29 2.28 3.09 3.16 2.2C4.05 1.32 5.25 0.82 6.5 0.81C7.76 0.81 8.96 1.3 9.85 2.18ZM10.29 3.01C10.46 3.25 10.6 3.52 10.72 3.8C10.83 4.08 10.92 4.36 10.98 4.65C11.04 4.94 11.07 5.24 11.07 5.54C11.07 5.85 11.05 6.15 10.99 6.44C10.93 6.73 10.85 7.02 10.73 7.3C10.61 7.58 10.47 7.84 10.31 8.09C10.14 8.34 9.95 8.57 9.74 8.78C9.53 9 9.29 9.18 9.05 9.35C8.8 9.51 8.54 9.66 8.25 9.77C7.97 9.89 7.69 9.97 7.4 10.03C7.1 10.09 6.81 10.11 6.5 10.11C6.2 10.11 5.9 10.08 5.61 10.02C5.32 9.96 5.04 9.87 4.76 9.76C4.48 9.64 4.21 9.5 3.97 9.33C3.72 9.16 3.49 8.97 3.28 8.75C3.07 8.54 2.88 8.31 2.72 8.06C2.56 7.82 2.42 7.56 2.31 7.28C2.2 7 2.11 6.72 2.05 6.43C2 6.14 1.97 5.84 1.97 5.54C1.97 5.24 2 4.95 2.06 4.66C2.12 4.37 2.21 4.09 2.32 3.81C2.44 3.54 2.58 3.28 2.74 3.03C2.91 2.79 3.09 2.56 3.31 2.35C3.52 2.13 3.75 1.95 3.99 1.78C4.24 1.62 4.5 1.48 4.77 1.36C5.05 1.25 5.33 1.16 5.62 1.1C5.91 1.04 6.2 1.01 6.5 1.01C6.8 1.01 7.1 1.04 7.39 1.1C7.68 1.15 7.96 1.24 8.24 1.35C8.52 1.46 8.78 1.6 9.02 1.76C9.27 1.92 9.5 2.11 9.71 2.32C9.93 2.53 10.12 2.76 10.29 3.01Z" fill="#000000" fill-opacity="1.000000" fill-rule="evenodd"/>
</svg>
