<svg width="15.000000" height="15.000000" viewBox="0 0 15 15" fill="none" xmlns="http://www.w3.org/2000/svg" xmlns:xlink="http://www.w3.org/1999/xlink">
	<desc>
			Created with Pixso.
	</desc>
	<defs/>
	<path id="Vector" d="M14.1 -0.73L-0.11 -0.73C-0.45 -0.73 -0.73 -0.45 -0.73 -0.11L-0.73 14.1C-0.73 14.44 -0.45 14.72 -0.11 14.72L14.1 14.72C14.44 14.72 14.72 14.44 14.72 14.1L14.72 -0.11C14.72 -0.45 14.44 -0.73 14.1 -0.73ZM12.32 3.78L11.08 3.78C10.12 3.78 9.93 4.24 9.93 4.92L9.93 6.4L12.24 6.4L11.94 8.73L9.93 8.73L9.93 14.72L7.52 14.72L7.52 8.74L5.51 8.74L5.51 6.4L7.52 6.4L7.52 4.69C7.52 2.69 8.74 1.6 10.52 1.6C11.37 1.6 12.1 1.67 12.32 1.7L12.32 3.78L12.32 3.78Z" fill="#FFFFFF" fill-opacity="1.000000" fill-rule="nonzero"/>
</svg>
