<svg width="15.000000" height="15.000000" viewBox="0 0 15 15" fill="none" xmlns="http://www.w3.org/2000/svg" xmlns:xlink="http://www.w3.org/1999/xlink">
	<desc>
			Created with Pixso.
	</desc>
	<defs/>
	<path id="Vector" d="M7 4.39C5.56 4.39 4.39 5.56 4.39 7C4.39 8.43 5.56 9.6 7 9.6C8.43 9.6 9.6 8.43 9.6 7C9.6 5.56 8.43 4.39 7 4.39ZM14.8 7C14.8 5.92 14.81 4.85 14.75 3.77C14.69 2.52 14.41 1.41 13.49 0.5C12.58 -0.42 11.47 -0.7 10.22 -0.76C9.14 -0.82 8.07 -0.81 7 -0.81C5.92 -0.81 4.85 -0.82 3.77 -0.76C2.52 -0.7 1.41 -0.42 0.5 0.5C-0.42 1.41 -0.7 2.52 -0.76 3.77C-0.82 4.85 -0.81 5.92 -0.81 7C-0.81 8.07 -0.82 9.14 -0.76 10.22C-0.7 11.47 -0.41 12.58 0.5 13.49C1.42 14.41 2.52 14.69 3.77 14.75C4.85 14.81 5.92 14.8 7 14.8C8.08 14.8 9.14 14.81 10.22 14.75C11.47 14.69 12.58 14.41 13.49 13.49C14.41 12.58 14.69 11.47 14.75 10.22C14.82 9.14 14.8 8.07 14.8 7ZM7 11C4.78 11 2.99 9.21 2.99 7C2.99 4.78 4.78 2.99 7 2.99C9.21 2.99 11 4.78 11 7C11 9.21 9.21 11 7 11ZM11.16 3.76C10.65 3.76 10.23 3.34 10.23 2.83C10.23 2.31 10.65 1.89 11.16 1.89C11.68 1.89 12.1 2.31 12.1 2.83C12.1 2.95 12.08 3.07 12.03 3.18C11.98 3.3 11.91 3.4 11.83 3.49C11.74 3.57 11.64 3.64 11.52 3.69C11.41 3.74 11.29 3.76 11.16 3.76Z" fill="#FFFFFF" fill-opacity="1.000000" fill-rule="nonzero"/>
</svg>
