<svg width="65.000000" height="68.000000" viewBox="0 0 65 68" fill="none" xmlns="http://www.w3.org/2000/svg" xmlns:xlink="http://www.w3.org/1999/xlink">
	<desc>
			Created with Pixso.
	</desc>
	<defs>
		<clipPath id="clip32_5276">
			<rect id="ri:account-pin-circle-fill" width="30.000000" height="30.000000" transform="translate(18.000000 19.000000)" fill="white" fill-opacity="0"/>
		</clipPath>
	</defs>
	<circle id="Ellipse 26" cx="32.500000" cy="34.031738" r="32.500000" fill="#0156FF" fill-opacity="1.000000"/>
	<rect id="ri:account-pin-circle-fill" width="30.000000" height="30.000000" transform="translate(18.000000 19.000000)" fill="#FFFFFF" fill-opacity="0"/>
	<g clip-path="url(#clip32_5276)">
		<path id="Vector" d="M35.81 46.17L33 49L30.18 46.17C24.63 44.89 20.5 39.92 20.5 34C20.5 27.1 26.1 21.5 33 21.5C39.89 21.5 45.5 27.1 45.5 34C45.5 39.92 41.36 44.89 35.81 46.17ZM25.52 38.27C27.36 41 30.11 42.75 33.2 42.75C36.27 42.75 39.03 41 40.87 38.27C38.78 36.32 36.04 35.24 33.2 35.25C30.35 35.24 27.6 36.32 25.52 38.27ZM33 32.75C33.99 32.75 34.94 32.35 35.65 31.65C36.35 30.94 36.75 29.99 36.75 29C36.75 28 36.35 27.05 35.65 26.34C34.94 25.64 33.99 25.25 33 25.25C32 25.25 31.05 25.64 30.34 26.34C29.64 27.05 29.25 28 29.25 29C29.25 29.99 29.64 30.94 30.34 31.65C31.05 32.35 32 32.75 33 32.75Z" fill="#FFFFFF" fill-opacity="1.000000" fill-rule="nonzero"/>
	</g>
</svg>
