<svg width="65.000000" height="68.000000" viewBox="0 0 65 68" fill="none" xmlns="http://www.w3.org/2000/svg" xmlns:xlink="http://www.w3.org/1999/xlink">
	<desc>
			Created with Pixso.
	</desc>
	<defs>
		<clipPath id="clip32_5299">
			<rect id="entypo:price-tag" width="26.000000" height="26.000000" transform="translate(20.000000 22.000000)" fill="white" fill-opacity="0"/>
		</clipPath>
	</defs>
	<circle id="Ellipse 26" cx="32.500000" cy="34.031738" r="32.500000" fill="#0156FF" fill-opacity="1.000000"/>
	<rect id="entypo:price-tag" width="26.000000" height="26.000000" transform="translate(20.000000 22.000000)" fill="#FFFFFF" fill-opacity="0"/>
	<g clip-path="url(#clip32_5299)">
		<path id="Vector" d="M45.2 22.52C45.12 22.33 44.98 22.18 44.79 22.1C44.61 22.01 44.4 22.01 44.21 22.07C44.02 22.14 43.86 22.28 43.77 22.46C43.68 22.64 43.66 22.85 43.72 23.04C44.92 26.51 42.53 29.1 40.7 30.49L39.96 29.43C39.71 29.08 39.16 28.78 38.73 28.78L34.58 28.8C34.08 28.81 33.58 28.96 33.16 29.24L20.94 37.8C20.66 38 20.47 38.3 20.41 38.65C20.35 38.99 20.42 39.34 20.62 39.62L26.17 47.56C26.59 48.16 27.25 48.08 27.84 47.67L40.06 39.11C40.41 38.86 40.81 38.32 40.96 37.91L42.25 33.83C42.4 33.42 42.31 32.79 42.06 32.44L41.61 31.79C44.07 29.91 46.61 26.59 45.2 22.52ZM39.52 34.69C39.29 34.84 39.04 34.96 38.77 35.02C38.5 35.07 38.23 35.08 37.96 35.03C37.68 34.99 37.43 34.88 37.19 34.74C36.96 34.59 36.76 34.4 36.61 34.17C36.29 33.72 36.16 33.15 36.26 32.61C36.35 32.06 36.66 31.57 37.12 31.25C37.48 31 37.9 30.87 38.34 30.87C38.77 30.88 39.2 31.02 39.55 31.27C39.19 31.49 38.95 31.61 38.91 31.63C38.74 31.71 38.61 31.84 38.54 32C38.46 32.16 38.44 32.34 38.48 32.52C38.51 32.69 38.61 32.85 38.75 32.96C38.89 33.07 39.06 33.13 39.24 33.13C39.35 33.13 39.47 33.1 39.58 33.05C39.83 32.93 40.1 32.79 40.38 32.63C40.45 33.02 40.4 33.42 40.25 33.78C40.09 34.15 39.84 34.46 39.52 34.69Z" fill="#FFFFFF" fill-opacity="1.000000" fill-rule="nonzero"/>
	</g>
</svg>
