<svg width="50.000000" height="50.000000" viewBox="0 0 50 50" fill="none" xmlns="http://www.w3.org/2000/svg" xmlns:xlink="http://www.w3.org/1999/xlink">
	<desc>
			Created with Pixso.
	</desc>
	<defs/>
	<path id="Rectangle 50" d="M0 25C0 11.19 11.19 0 25 0C38.8 0 50 11.19 50 25C50 38.8 38.8 50 25 50L0 50L0 25Z" fill="#0156FF" fill-opacity="1.000000" fill-rule="nonzero"/>
	<path id="Star 12" d="M25.72 17.09L27.67 21.55C27.82 21.88 28.13 22.11 28.49 22.14L33.34 22.62C34.21 22.71 34.56 23.78 33.91 24.36L30.27 27.6C30 27.84 29.88 28.21 29.95 28.56L30.99 33.32C31.18 34.17 30.26 34.84 29.51 34.4L25.31 31.94C25 31.76 24.61 31.76 24.3 31.94L20.09 34.4C19.34 34.84 18.42 34.17 18.61 33.32L19.65 28.56C19.73 28.21 19.61 27.84 19.34 27.6L15.7 24.36C15.05 23.78 15.4 22.71 16.27 22.62L21.11 22.14C21.47 22.11 21.79 21.88 21.93 21.55L23.89 17.09C24.24 16.29 25.37 16.29 25.72 17.09Z" fill="#FFFFFF" fill-opacity="1.000000" fill-rule="nonzero"/>
</svg>
