<svg width="65.000000" height="68.000000" viewBox="0 0 65 68" fill="none" xmlns="http://www.w3.org/2000/svg" xmlns:xlink="http://www.w3.org/1999/xlink">
	<desc>
			Created with Pixso.
	</desc>
	<defs>
		<clipPath id="clip32_5252">
			<rect id="bx:bx-support" width="29.620253" height="29.620253" transform="translate(18.101074 18.923828)" fill="white" fill-opacity="0"/>
		</clipPath>
	</defs>
	<circle id="Ellipse 26" cx="32.500000" cy="33.500000" r="32.500000" fill="#0156FF" fill-opacity="1.000000"/>
	<rect id="bx:bx-support" width="29.620253" height="29.620253" transform="translate(18.101074 18.923828)" fill="#FFFFFF" fill-opacity="0"/>
	<g clip-path="url(#clip32_5252)">
		<path id="Vector" d="M32.91 21.39C26.1 21.39 20.56 26.92 20.56 33.73L20.56 38.84C20.56 40.11 21.67 41.13 23.03 41.13L24.27 41.13C24.59 41.13 24.91 41 25.14 40.77C25.37 40.54 25.5 40.23 25.5 39.9L25.5 33.55C25.5 33.23 25.37 32.91 25.14 32.68C24.91 32.45 24.59 32.32 24.27 32.32L23.15 32.32C23.83 27.54 27.94 23.86 32.91 23.86C37.87 23.86 41.98 27.54 42.67 32.32L41.55 32.32C41.22 32.32 40.9 32.45 40.67 32.68C40.44 32.91 40.31 33.23 40.31 33.55L40.31 41.13C40.31 42.5 39.2 43.6 37.84 43.6L35.37 43.6L35.37 42.37L30.44 42.37L30.44 46.07L37.84 46.07C40.57 46.07 42.78 43.86 42.78 41.13C44.14 41.13 45.25 40.11 45.25 38.84L45.25 33.73C45.25 26.92 39.71 21.39 32.91 21.39Z" fill="#FFFFFF" fill-opacity="1.000000" fill-rule="nonzero"/>
	</g>
</svg>
