<svg width="50.000000" height="50.000000" viewBox="0 0 50 50" fill="none" xmlns="http://www.w3.org/2000/svg" xmlns:xlink="http://www.w3.org/1999/xlink">
	<desc>
			Created with Pixso.
	</desc>
	<defs/>
	<path id="Rectangle 50" d="M0 25C0 11.19 11.19 0 25 0C38.8 0 50 11.19 50 25C50 38.8 38.8 50 25 50L0 50L0 25Z" fill="#0156FF" fill-opacity="1.000000" fill-rule="nonzero"/>
	<path id="Vector" d="M16.89 18C16.39 18 15.9 18.19 15.55 18.55C15.19 18.9 15 19.39 15 19.89L15 30.31L16.89 30.31C16.89 31.06 17.19 31.78 17.72 32.31C18.25 32.85 18.98 33.15 19.73 33.15C20.48 33.15 21.21 32.85 21.74 32.31C22.27 31.78 22.57 31.06 22.57 30.31L28.25 30.31C28.25 31.06 28.55 31.78 29.08 32.31C29.62 32.85 30.34 33.15 31.09 33.15C31.85 33.15 32.57 32.85 33.1 32.31C33.64 31.78 33.93 31.06 33.93 30.31L35.83 30.31L35.83 25.57L32.99 21.78L30.15 21.78L30.15 18L16.89 18ZM30.15 23.2L32.51 23.2L34.38 25.57L30.15 25.57L30.15 23.2ZM19.73 28.89C20.11 28.89 20.47 29.03 20.73 29.3C21 29.57 21.15 29.93 21.15 30.31C21.15 30.68 21 31.04 20.73 31.31C20.47 31.58 20.11 31.73 19.73 31.73C19.35 31.73 18.99 31.58 18.73 31.31C18.46 31.04 18.31 30.68 18.31 30.31C18.31 29.93 18.46 29.57 18.73 29.3C18.99 29.03 19.35 28.89 19.73 28.89ZM31.09 28.89C31.47 28.89 31.83 29.03 32.1 29.3C32.36 29.57 32.51 29.93 32.51 30.31C32.51 30.68 32.36 31.04 32.1 31.31C31.83 31.58 31.47 31.73 31.09 31.73C30.72 31.73 30.36 31.58 30.09 31.31C29.82 31.04 29.67 30.68 29.67 30.31C29.67 29.93 29.82 29.57 30.09 29.3C30.36 29.03 30.72 28.89 31.09 28.89Z" fill="#FFFFFF" fill-opacity="1.000000" fill-rule="nonzero"/>
</svg>
